HIERARCHY
ROOT Hips
{
	OFFSET -3.958830 18.904000 13.208200
	CHANNELS 6 Xposition Yposition Zposition Zrotation Yrotation Xrotation 
	JOINT LHipJoint
	{
		OFFSET 0.000000 0.000000 0.000000
		CHANNELS 3 Zrotation Yrotation Xrotation
		JOINT LeftUpLeg
		{
			OFFSET 1.800000 -1.400000 0.085000
			CHANNELS 3 Zrotation Yrotation Xrotation
			JOINT LeftLeg
			{
				OFFSET 2.215000 -6.000000 0.000000
				CHANNELS 3 Zrotation Yrotation Xrotation
				JOINT LeftFoot
				{
					OFFSET 2.500000 -6.900000 0.000000
					CHANNELS 3 Zrotation Yrotation Xrotation
					JOINT LeftToeBase
					{
						OFFSET 0.200000 -0.500000 1.950000
						CHANNELS 3 Zrotation Yrotation Xrotation
						End Site
						{
							OFFSET 0.000000 0.000000 0.000000
						}
					}
				}
			}
		}
	}
	JOINT RHipJoint
	{
		OFFSET 0.000000 0.000000 0.000000
		CHANNELS 3 Zrotation Yrotation Xrotation
		JOINT RightUpLeg
		{
			OFFSET -1.800000 -1.400000 0.085000
			CHANNELS 3 Zrotation Yrotation Xrotation
			JOINT RightLeg
			{
				OFFSET -2.215000 -6.000000 0.000000
				CHANNELS 3 Zrotation Yrotation Xrotation
				JOINT RightFoot
				{
					OFFSET -2.500000 -6.900000 0.000000
					CHANNELS 3 Zrotation Yrotation Xrotation
					JOINT RightToeBase
					{
						OFFSET -0.200000 -0.500000 1.950000
						CHANNELS 3 Zrotation Yrotation Xrotation
						End Site
						{
							OFFSET 0.000000 0.000000 0.000000
						}
					}
				}
			}
		}
	}
	JOINT LowerBack
	{
		OFFSET 0.000000 0.000000 0.000000
		CHANNELS 3 Zrotation Yrotation Xrotation
		JOINT Spine
		{
			OFFSET -0.087000 1.940000 -0.288900
			CHANNELS 3 Zrotation Yrotation Xrotation
			JOINT Spine1
			{
				OFFSET 0.000000 1.950000 0.060000
				CHANNELS 3 Zrotation Yrotation Xrotation
				JOINT Neck
				{
					OFFSET 0.000000 0.000000 0.000000
					CHANNELS 3 Zrotation Yrotation Xrotation
					JOINT Neck1
					{
						OFFSET 0.000000 1.600000 0.340000
						CHANNELS 3 Zrotation Yrotation Xrotation
						JOINT Head
						{
							OFFSET 0.000000 1.667000 -0.240000
							CHANNELS 3 Zrotation Yrotation Xrotation
							End Site
							{
								OFFSET 0.000000 0.000000 0.000000
							}
						}
					}
				}
				JOINT LeftShoulder
				{
					OFFSET 0.000000 0.000000 0.000000
					CHANNELS 3 Zrotation Yrotation Xrotation
					JOINT LeftArm
					{
						OFFSET 2.700000 1.550000 -0.730000
						CHANNELS 3 Zrotation Yrotation Xrotation
						JOINT LeftForeArm
						{
							OFFSET 5.450000 0.000000 0.000000
							CHANNELS 3 Zrotation Yrotation Xrotation
							JOINT LeftHand
							{
								OFFSET 3.450000 0.000000 0.000000
								CHANNELS 3 Zrotation Yrotation Xrotation
								JOINT LeftHandIndex1
								{
									OFFSET 0.750000 0.000000 0.000000
									CHANNELS 3 Zrotation Yrotation Xrotation
									End Site
									{
										OFFSET 0.000000 0.000000 0.000000
									}
								}
							}
						}
					}
				}
				JOINT RightShoulder
				{
					OFFSET 0.000000 0.000000 0.000000
					CHANNELS 3 Zrotation Yrotation Xrotation
					JOINT RightArm
					{
						OFFSET -2.700000 1.550000 -0.730000
						CHANNELS 3 Zrotation Yrotation Xrotation
						JOINT RightForeArm
						{
							OFFSET -5.450000 0.000000 0.000000
							CHANNELS 3 Zrotation Yrotation Xrotation
							JOINT RightHand
							{
								OFFSET -3.450000 0.000000 0.000000
								CHANNELS 3 Zrotation Yrotation Xrotation
								JOINT RightHandIndex1
								{
									OFFSET -0.750000 0.000000 0.000000
									CHANNELS 3 Zrotation Yrotation Xrotation
									End Site
									{
										OFFSET 0.000000 0.000000 0.000000
									}
								}
							}
						}
					}
				}
			}
		}
	}
}
MOTION
Frames: 13
Frame Time: 0.016667
7.074350 15.405440 1.502230 -4.602651 -36.921598 2.463319 -15.321375 14.211418 2.148711 19.314074 -2.234799 -14.991338 2.666862 7.293775 32.334083 -0.294525 6.324724 2.149529 0.492790 0.483100 0.397600 18.152286 -9.280538 4.041423 -11.361871 6.226043 -38.805990 15.167765 -9.123435 28.546224 -0.309572 -4.602567 2.514436 0.478230 0.108120 0.171090 -2.956844 -4.570815 -7.675651 3.681175 -3.785161 22.525149 -1.272187 -2.860192 8.172319 -2.147710 -6.271918 -5.257280 -14.748541 14.177694 29.917344 -5.199430 13.314880 -12.699220 -12.170254 -5.241360 -3.292379 -12.696196 -29.052131 -0.117657 30.288386 -64.781253 -16.214152 -3.785842 2.909684 0.180630 0.210210 0.041690 0.109240 15.845690 7.632028 3.483765 21.464431 0.629224 -9.209895 113.922258 76.858828 94.446639 2.314018 1.237521 -0.141710 0.215080 -0.079860 -0.197170 
7.138860 15.340020 1.512770 -5.228106 -36.854640 1.639827 -15.326430 14.131578 2.035842 19.536482 -2.262598 -14.636193 3.508692 7.286414 34.039316 -0.224302 6.532492 2.076439 0.484110 0.467500 0.406070 18.187216 -9.056257 4.350225 -13.760531 6.605232 -41.147817 17.402109 -11.619630 33.761175 -0.534018 -5.814606 2.090878 0.452140 0.083940 0.169410 -3.058029 -4.653701 -7.835432 4.426604 -4.405353 23.565726 -1.573749 -3.214330 8.823494 -1.768576 -6.555063 -6.633889 -15.549735 15.109746 30.012374 -5.490770 13.900890 -12.598290 -15.508765 -6.731311 -3.724442 -13.381978 -28.090690 -1.137674 20.585141 -57.808793 -9.140628 -3.788850 2.983648 0.198080 0.187920 0.062270 0.102930 18.546320 7.928121 6.749827 19.788691 4.935602 0.094810 -110.314074 85.954427 -120.574065 2.883689 -0.011060 -0.133090 0.201240 -0.086030 -0.200420 
7.202120 15.279140 1.518320 -5.637490 -36.524825 0.566346 -15.363730 13.923409 1.969962 20.038023 -2.287174 -14.348354 2.952576 7.994875 36.098378 -0.121238 6.930629 1.931389 0.467690 0.442980 0.395290 18.209281 -8.766399 4.693002 -17.036893 6.728764 -43.254646 20.678566 -14.876910 38.649973 -0.826597 -7.248022 1.617467 0.419090 0.066140 0.164040 -3.114335 -4.635413 -8.071340 4.746067 -4.781385 25.010000 -1.623030 -3.459750 6.880554 -1.303726 -6.816417 -6.214006 -15.947570 15.739377 31.330479 -5.134680 14.005960 -12.196190 -19.578515 -9.010132 -2.434787 -13.862562 -25.831772 -1.943194 15.481411 -50.584575 -5.705250 -3.809602 3.002077 0.216910 0.161300 0.075570 0.096660 21.855468 11.078272 5.174983 18.947408 4.229169 -7.183977 23.259868 86.275516 16.431519 1.983234 -2.063852 -0.123860 0.188620 -0.082100 -0.198120 
7.240820 15.232210 1.514600 -6.353279 -36.175390 -0.107654 -15.388954 13.694604 1.932634 21.108375 -2.196775 -14.339904 2.428439 8.815446 38.093888 -0.013574 7.364959 1.775523 0.448440 0.410890 0.378580 18.239500 -8.462905 5.046625 -20.193144 7.021529 -44.645097 24.999387 -18.409720 42.104449 -1.141834 -8.575370 1.211282 0.384440 0.057090 0.159000 -3.212771 -4.579552 -8.328429 5.446307 -5.193816 26.249844 -1.896503 -3.690715 5.024897 -0.829297 -7.142624 -6.268527 -16.581555 16.359523 32.413460 -4.685060 14.011880 -11.489990 -24.109759 -10.904760 -1.373975 -14.115964 -23.016778 -2.793123 12.402370 -43.638790 -3.849051 -3.818088 3.019339 0.234800 0.139230 0.081320 0.094240 25.633264 13.389138 4.726135 18.718880 6.049953 -9.195675 4.317811 79.731095 1.187818 1.927959 -1.874455 -0.119060 0.176950 -0.076090 -0.195010 
7.271740 15.198720 1.516790 -7.180821 -35.710062 -0.380575 -15.382656 13.446853 1.893373 22.334263 -2.006858 -14.476829 1.915669 9.427797 38.890149 0.051029 7.602228 1.691570 0.425770 0.378280 0.368570 18.297626 -8.219435 5.365355 -23.311722 7.038234 -45.743097 28.976465 -22.248650 45.365841 -1.467010 -9.832496 0.851925 0.353190 0.047860 0.146480 -3.415061 -4.422795 -8.532356 6.998289 -5.984335 26.943288 -2.981268 -4.170313 3.285115 -0.295192 -7.564988 -6.416707 -17.536365 16.935079 33.461512 -4.810540 14.036040 -10.765670 -28.121267 -11.840765 -0.558906 -15.172322 -20.551046 -2.887502 8.646914 -34.680976 -2.107612 -3.830817 3.025130 0.248980 0.121650 0.086120 0.089600 28.643882 14.487361 4.547215 19.838684 7.170744 -10.275499 -4.028202 75.168502 -4.098098 1.914756 -1.728958 -0.120940 0.174580 -0.072400 -0.194790 
7.254910 15.172640 1.562870 -7.549929 -35.862981 -0.903679 -15.358588 13.298996 1.881034 23.607785 -1.515612 -13.523720 0.906843 10.292949 39.098595 0.118437 7.848907 1.602641 0.400640 0.332460 0.372420 18.332901 -8.144282 5.513630 -25.686101 7.073055 -44.917332 32.234569 -25.584420 47.681511 -1.738649 -10.756156 0.596998 0.312620 0.023810 0.142620 -3.569189 -4.198015 -8.667162 8.037487 -6.171968 26.861214 -4.516813 -4.182285 1.453810 0.479826 -7.522311 -6.463595 -17.363744 17.381927 34.863871 -5.009600 14.421810 -10.498090 -32.412677 -11.626596 -0.035898 -16.623080 -17.213782 -2.950541 5.552891 -27.235623 -1.176468 -3.820454 3.033479 0.283950 0.095740 0.102220 0.071050 31.341049 14.261889 4.600645 22.511454 6.855118 -11.035584 -5.547684 73.754309 -5.001185 1.920071 -1.670140 -0.124740 0.162290 -0.061740 -0.208960 
7.229950 15.160090 1.598800 -7.733786 -35.346019 -1.156652 -15.328596 13.161496 1.973313 24.535109 -1.127080 -14.166294 0.239870 11.027134 39.922760 0.192365 8.100641 1.509474 0.373820 0.289390 0.371340 18.358502 -8.167493 5.499036 -27.370583 6.965012 -42.482651 35.300539 -28.507112 48.769337 -1.942717 -11.389033 0.437045 0.273020 0.010740 0.139890 -3.692123 -3.957927 -8.766896 8.771465 -6.336921 26.414392 -6.020910 -4.286735 -0.332271 1.235973 -7.205927 -6.302760 -16.349618 17.635432 36.186062 -5.152260 14.954680 -9.705680 -36.045675 -10.271117 0.408084 -18.212397 -12.709049 -2.968966 2.519494 -21.402250 -0.607874 -3.788785 3.062989 0.297680 0.083810 0.108040 0.059250 33.360756 12.830389 4.348610 25.173864 5.959794 -11.172531 0.149836 73.394692 -1.432840 1.960942 -1.720394 -0.124230 0.144260 -0.057650 -0.216340 
7.191330 15.154770 1.609310 -7.570386 -33.096256 -1.440159 -15.277759 13.093306 1.948943 25.104956 -0.700449 -14.298209 0.519442 11.021157 39.648737 0.226741 8.057342 1.532133 0.333770 0.237990 0.360770 18.403373 -8.205033 5.544294 -29.068745 6.745900 -40.640507 38.650702 -31.044259 48.830413 -2.084958 -11.808619 0.343325 0.228070 0.007870 0.139600 -3.823565 -3.724344 -8.836428 9.023312 -6.889515 25.628374 -7.663302 -5.017609 -1.388037 1.885669 -6.512658 -6.177588 -14.413857 17.221057 37.782574 -5.869860 15.378800 -8.289500 -38.578215 -9.057003 1.149154 -18.871678 -7.680820 -2.397622 -0.607597 -14.316239 -0.279642 -3.760259 3.063811 0.286470 0.090580 0.102590 0.049900 34.529351 11.147541 3.820161 29.002619 5.771320 -10.808520 10.021589 73.315351 4.772699 2.018683 -1.788401 -0.120340 0.119360 -0.055470 -0.216650 
7.123970 15.164650 1.645660 -7.120882 -31.605347 -1.985910 -15.178575 13.113914 1.855296 25.116731 0.005799 -13.711558 1.274514 10.613549 38.708357 0.211509 7.839935 1.613256 0.321480 0.221800 0.358120 18.456121 -8.489250 5.441567 -29.758449 6.896370 -36.923348 40.818276 -32.700994 48.714985 -2.181788 -12.012190 0.301445 0.209240 0.005380 0.141510 -4.024321 -3.276564 -8.751914 9.464725 -6.675979 23.886869 -9.698285 -5.034028 -1.629395 2.329991 -5.972916 -5.791397 -12.830021 16.710520 39.110059 -6.010690 15.231180 -7.898320 -39.832425 -6.995305 1.138534 -20.075503 -3.400169 -1.727650 -2.345595 -8.902584 -0.368836 -3.746177 2.995623 0.290900 0.088440 0.109380 0.047490 34.622444 8.607666 3.246205 33.006795 4.991312 -9.667146 26.050309 73.731150 15.113947 2.108958 -1.845075 -0.115930 0.118100 -0.052940 -0.214990 
7.034120 15.185990 1.679170 -6.503144 -30.220317 -2.274448 -15.098748 13.125677 1.832910 25.232582 0.760478 -13.348174 1.156792 10.425159 36.863485 0.161968 7.586225 1.701506 0.315140 0.216010 0.332990 18.484513 -8.837930 5.192399 -29.492004 7.062216 -32.296148 42.077447 -32.520793 46.972755 -2.145618 -11.837172 0.343118 0.214320 0.030410 0.145830 -4.149553 -2.821656 -8.595900 9.225502 -5.930758 21.481219 -11.158420 -4.650777 -1.206540 2.494383 -5.739793 -5.088404 -11.743291 16.336809 39.247559 -5.206250 14.588330 -7.136010 -40.007069 -4.366917 0.578099 -21.640265 0.073315 -1.297974 -2.902889 -5.257273 -0.562634 -3.772064 2.942678 0.275560 0.103300 0.088660 0.051740 34.226418 5.803726 2.589167 35.322523 4.467111 -6.981269 47.939146 73.885485 29.549638 2.298730 -1.794217 -0.118050 0.119870 -0.039250 -0.204740 
6.951290 15.204740 1.728370 -5.992293 -28.804942 -2.373600 -14.955946 13.211438 1.691779 23.792687 1.293743 -13.707678 3.140058 9.227706 35.970092 0.092298 7.158744 1.870377 0.293030 0.192790 0.305670 18.548674 -9.402563 4.890647 -28.496800 7.030368 -26.817186 42.322826 -30.912199 44.060879 -2.012399 -11.408290 0.453276 0.213460 0.074170 0.153450 -4.399903 -2.103423 -8.283445 9.787144 -5.014328 18.598183 -13.485559 -4.090294 -0.477446 3.080189 -5.005701 -4.072094 -9.178348 15.223702 38.520877 -4.999800 14.111680 -6.039970 -39.877243 -1.681404 0.047721 -22.399384 3.937643 -0.964447 -1.976513 -1.613333 -0.720170 -3.840452 2.878318 0.234860 0.143820 0.050300 0.058150 32.566523 2.697666 1.727493 37.456553 3.900921 -4.164359 70.670698 71.434755 42.682625 2.638630 -1.470615 -0.125680 0.118040 -0.027520 -0.193090 
6.883540 15.246860 1.725830 -5.322861 -27.256021 -1.945114 -14.848793 13.279428 1.617046 22.221947 1.594735 -14.780416 4.879122 8.082167 34.892898 0.023475 6.705240 2.044018 0.276860 0.181570 0.263460 18.587172 -9.911053 4.564289 -26.721043 6.665110 -21.929746 41.665109 -27.316848 39.032052 -1.766310 -10.561135 0.692428 0.214070 0.120990 0.152850 -4.549614 -1.495825 -7.974957 9.780332 -3.972333 16.099877 -15.118566 -3.298764 0.225380 3.467140 -4.782989 -3.602682 -8.082597 14.528050 37.747957 -4.102880 13.280060 -5.020820 -38.476840 0.300456 -0.217557 -23.402997 7.241024 -0.797353 -1.083625 1.201223 -0.767027 -3.900110 2.823861 0.201950 0.170240 0.017020 0.076720 30.196646 0.927356 1.215490 38.508066 3.287175 -3.225431 85.972067 66.784926 50.335558 2.738414 -1.385342 -0.130130 0.127450 -0.018490 -0.169760 
6.790250 15.289110 1.697510 -4.247048 -25.032661 -1.408456 -14.891044 13.321921 1.631107 21.457282 1.818906 -16.290939 5.776023 7.459061 33.688920 -0.066185 6.406455 2.151534 0.275850 0.180320 0.239870 18.520864 -10.192533 4.236589 -24.419925 6.158425 -18.559365 39.492692 -23.655530 34.829940 -1.515964 -9.729313 0.935230 0.239110 0.172910 0.153460 -4.310671 -1.254312 -7.741287 7.046626 -2.702702 14.142191 -14.778549 -2.352255 0.790207 3.556315 -4.436179 -2.861807 -6.887543 13.863388 35.763574 -2.998130 12.454510 -5.011190 -36.017454 2.908414 -0.759894 -24.351304 9.902962 -1.119449 -0.140774 1.945130 -0.769976 -3.969131 2.804807 0.181320 0.199810 -0.019850 0.089670 27.864166 -1.275228 0.567606 38.188249 2.347084 -2.478511 100.460593 61.307123 58.505537 2.574209 -1.592797 -0.151920 0.153380 -0.003530 -0.160150 
